<svg
            version="1.0"
            xmlns="http://www.w3.org/2000/svg"
            viewBox="0 0 200.000000 200.000000"
            preserveAspectRatio="xMidYMid meet"
        >
            <g
                transform="translate(0.000000,200.000000) scale(0.100000,-0.100000)"
                fill="#7C05F5"
                stroke="none"
            >
                <path
                    d="M997 1881 c-49 -176 -208 -380 -427 -545 -205 -156 -295 -250 -347
        -363 -23 -48 -27 -72 -28 -143 0 -73 4 -93 28 -142 75 -153 252 -233 433 -195
        132 28 236 101 314 220 46 71 47 68 30 -73 -20 -161 -69 -267 -166 -360 -99
        -95 -226 -146 -398 -159 -76 -6 -80 -7 -87 -34 l-7 -27 675 0 c612 0 675 1
        669 16 -3 9 -6 21 -6 28 0 9 -24 15 -75 20 -289 26 -478 165 -540 396 -9 30
        -18 98 -22 150 l-6 95 45 -60 c126 -170 277 -242 448 -216 129 20 227 90 279
        201 22 46 26 69 26 141 0 78 -3 91 -38 161 -45 91 -130 182 -317 338 -69 57
        -163 142 -209 188 -121 123 -165 195 -249 406 -6 14 -12 4 -25 -43z"
                />
            </g>
        </svg>