<svg
            version="1.0"
            xmlns="http://www.w3.org/2000/svg"
            viewBox="0 0 200.000000 200.000000"
            preserveAspectRatio="xMidYMid meet"
        >
            <g
                transform="translate(0.000000,200.000000) scale(0.100000,-0.100000)"
                fill="#95F2DD"
                stroke="none"
            >
                <path
                    d="M878 1608 l-115 -373 -382 -5 -383 -5 302 -229 c166 -125 303 -233
        306 -240 2 -6 -47 -178 -110 -381 -63 -203 -113 -371 -111 -373 1 -2 137 99
        301 224 165 125 306 228 314 228 8 0 149 -103 314 -228 164 -125 300 -225 302
        -223 2 1 -48 169 -111 372 -63 204 -113 375 -111 381 2 5 140 113 306 240
        l301 229 -382 5 -381 5 -116 373 c-64 204 -118 372 -122 372 -3 0 -58 -168
        -122 -372z"
                />
            </g>
        </svg>