<svg
            version="1.0"
            xmlns="http://www.w3.org/2000/svg"
            viewBox="0 0 200.000000 200.000000"
            preserveAspectRatio="xMidYMid meet"
        >
            <g
                transform="translate(0.000000,200.000000) scale(0.100000,-0.100000)"
                fill="#79E200"
                stroke="none"
            >
                <path
                    d="M879 1622 l-116 -377 -380 -5 -379 -5 302 -230 c167 -126 303 -236
        304 -243 0 -7 -52 -180 -115 -384 -63 -204 -114 -372 -112 -373 1 -2 139 103
        307 231 168 129 307 234 310 234 3 0 142 -105 310 -234 168 -128 306 -232 308
        -231 1 1 -49 170 -113 374 -63 205 -115 378 -114 384 0 7 136 116 303 242
        l303 230 -380 5 -379 5 -117 377 c-64 208 -118 378 -121 378 -3 0 -57 -170
        -121 -378z m187 -329 l60 -198 214 -5 214 -5 -164 -125 c-90 -69 -167 -127
        -171 -130 -5 -3 20 -98 55 -210 35 -113 62 -206 61 -208 -2 -2 -77 53 -167
        122 -89 69 -166 125 -170 123 -4 -1 -80 -58 -168 -125 -89 -68 -163 -122 -164
        -120 -2 1 25 95 60 208 35 112 60 207 56 210 -5 3 -82 61 -172 130 l-164 125
        214 5 214 5 61 198 c33 108 62 197 65 197 3 0 33 -89 66 -197z"
                />
            </g>
        </svg>