<svg version="1.0" xmlns="http://www.w3.org/2000/svg"
        viewBox="0 0 736.000000 1012.000000"
        preserveAspectRatio="xMidYMid meet">

        <g transform="translate(0.000000,1012.000000) scale(0.100000,-0.100000)"
        fill="#000000" stroke="none">
        <path d="M4680 9773 c205 -175 316 -290 440 -457 268 -361 433 -785 518 -1326
        23 -151 25 -196 28 -520 l2 -356 62 -98 c177 -281 283 -579 311 -872 43 -459
        -146 -931 -523 -1301 -82 -81 -219 -195 -226 -189 -2 2 15 31 36 64 78 120
        209 438 275 667 88 302 117 486 124 778 6 239 0 319 -38 517 -20 99 -99 356
        -120 390 -7 10 -9 -24 -5 -106 13 -272 -28 -594 -104 -826 -86 -263 -205 -461
        -390 -653 -99 -102 -118 -127 -128 -168 -39 -154 -139 -339 -274 -509 -78 -99
        -310 -338 -327 -338 -4 0 -101 231 -214 513 -113 281 -265 661 -339 844 -73
        182 -136 329 -140 325 -5 -6 -339 -832 -613 -1517 -30 -77 -60 -147 -65 -155
        -7 -11 -25 1 -86 60 -279 270 -448 517 -516 755 -23 79 -24 81 -133 190 -176
        176 -301 381 -384 631 -80 239 -115 484 -109 776 2 97 0 174 -4 172 -12 -8
        -70 -179 -99 -294 -47 -186 -63 -321 -63 -545 0 -278 35 -517 120 -812 75
        -263 211 -592 297 -717 14 -22 25 -42 22 -44 -2 -3 -44 27 -92 66 -322 258
        -559 633 -640 1012 -28 131 -25 458 5 598 55 252 168 516 314 734 l38 57 -6
        218 c-18 602 91 1143 324 1610 136 272 333 535 537 716 49 44 99 89 110 99 20
        20 20 20 -5 8 -47 -24 -215 -134 -330 -215 -448 -319 -886 -760 -1194 -1202
        l-58 -83 -10 -137 c-5 -76 -7 -228 -4 -338 6 -192 31 -531 42 -567 3 -10 1
        -18 -4 -18 -5 0 -21 26 -35 58 -91 202 -149 434 -165 662 l-7 95 -39 -60
        c-145 -223 -337 -570 -456 -824 -125 -268 -119 -238 -75 -356 109 -291 291
        -625 499 -915 41 -57 73 -106 71 -108 -10 -10 -230 138 -330 223 -114 97 -269
        277 -318 370 -35 65 -32 17 8 -166 104 -468 239 -888 361 -1119 l34 -65 463
        -260 462 -260 -65 -3 c-128 -7 -373 37 -530 94 -35 13 -66 21 -68 19 -2 -2 14
        -30 36 -62 298 -439 739 -790 1248 -996 137 -55 354 -124 354 -111 0 2 -28 22
        -62 45 -141 94 -304 290 -396 475 -44 88 -118 291 -109 300 2 3 81 -37 173
        -89 650 -365 969 -546 970 -554 1 -4 -35 -42 -80 -83 -175 -161 -647 -599
        -955 -885 l-323 -300 79 -7 c166 -15 308 -62 419 -139 63 -43 158 -141 190
        -195 14 -24 30 -42 34 -39 5 3 178 245 386 538 358 505 424 595 424 584 0 -14
        -159 -369 -657 -1462 -85 -187 -157 -345 -160 -352 -2 -6 40 -36 99 -69 125
        -69 255 -155 363 -239 138 -107 317 -303 369 -403 10 -19 19 -32 21 -30 5 5
        30 277 91 1007 12 138 18 130 53 -71 76 -443 124 -717 167 -948 57 -314 65
        -352 69 -348 5 5 120 638 201 1110 36 211 68 385 70 387 2 2 4 -8 4 -23 0 -28
        39 -487 65 -766 8 -85 17 -199 21 -252 4 -54 10 -98 14 -98 3 0 17 18 29 41
        36 63 138 187 221 268 126 123 332 270 533 380 42 23 75 46 73 49 -2 4 -101
        223 -221 487 -119 264 -302 668 -407 899 -104 230 -188 420 -185 422 3 4 270
        -368 645 -898 85 -120 157 -218 161 -218 4 0 14 13 24 29 34 58 108 141 165
        184 117 91 249 141 421 160 l113 12 -373 345 c-206 190 -450 417 -544 505 -94
        88 -232 216 -306 285 -74 69 -134 129 -134 133 0 5 38 30 85 56 47 26 211 118
        365 205 615 348 686 388 689 385 8 -9 -65 -206 -107 -292 -95 -193 -238 -368
        -391 -477 -41 -30 -74 -55 -72 -57 7 -7 227 61 334 103 420 166 806 438 1089
        768 82 96 227 295 220 302 -1 2 -51 -12 -111 -31 -59 -19 -156 -44 -215 -55
        -118 -23 -342 -39 -326 -23 9 9 275 160 782 444 l132 74 55 115 c89 186 167
        405 241 675 58 213 135 547 135 586 0 18 -17 8 -28 -17 -24 -52 -187 -257
        -251 -315 -118 -108 -385 -298 -399 -284 -2 2 16 30 41 62 57 75 220 324 279
        428 105 184 211 413 264 569 l24 69 -51 116 c-117 265 -319 642 -485 906 l-69
        110 -6 -50 c-4 -27 -12 -97 -19 -155 -20 -184 -123 -530 -176 -596 -14 -18
        -15 -17 -10 21 27 211 37 414 34 701 l-3 312 -60 88 c-257 379 -681 819 -1075
        1118 -150 114 -272 197 -412 282 -120 72 -121 73 -68 27z"/>
        </g>
</svg>