<svg
            version="1.0"
            xmlns="http://www.w3.org/2000/svg"
            viewBox="0 0 200.000000 200.000000"
            preserveAspectRatio="xMidYMid meet"
        >
            <g
                transform="translate(0.000000,200.000000) scale(0.100000,-0.100000)"
                fill="#FC1116"
                stroke="none"
            >
                <path
                    d="M964 1897 l-30 -102 -70 -13 c-270 -48 -498 -218 -617 -459 l-41 -83
        -104 0 -105 0 88 -67 c84 -64 86 -67 80 -100 -10 -53 -7 -217 5 -282 24 -134
        86 -267 175 -378 35 -43 76 -88 93 -100 l30 -22 -44 -143 c-24 -79 -44 -144
        -44 -146 0 -2 55 40 123 92 117 90 124 93 147 80 14 -7 61 -26 105 -40 66 -22
        104 -27 215 -31 151 -5 231 7 345 52 l67 27 120 -92 c73 -57 118 -85 115 -74
        -3 11 -23 74 -43 141 l-37 122 54 53 c106 102 180 223 230 373 20 61 23 92 25
        242 l1 173 78 60 78 60 -99 0 -100 0 -41 83 c-121 244 -352 415 -624 460 l-72
        12 -31 103 c-16 56 -33 102 -36 102 -3 0 -19 -46 -36 -103z m-84 -270 c0 -1
        -26 -88 -59 -192 l-59 -190 -196 -3 -197 -2 28 52 c38 70 184 217 257 258 81
        45 226 95 226 77z m390 -36 c37 -15 92 -44 123 -65 70 -47 183 -167 220 -235
        l28 -51 -201 2 -202 3 -59 190 c-32 105 -59 192 -59 194 0 10 91 -13 150 -38z
        m-204 -298 l60 -198 214 -5 214 -5 -164 -125 c-90 -69 -167 -127 -171 -130 -5
        -3 20 -98 55 -210 35 -113 62 -206 61 -208 -2 -2 -77 53 -167 122 -89 69 -166
        125 -170 123 -4 -1 -80 -58 -168 -125 -89 -68 -163 -122 -164 -120 -2 1 25 95
        60 208 35 112 60 207 56 210 -5 3 -82 61 -172 130 l-164 125 214 5 214 5 61
        198 c33 108 62 197 65 197 3 0 33 -89 66 -197z m-456 -532 c0 -8 -21 -81 -47
        -164 l-47 -150 -48 53 c-86 97 -154 266 -158 395 -4 119 -18 120 150 -7 82
        -62 149 -119 150 -127z m1090 162 c0 -43 -7 -107 -15 -143 -22 -91 -86 -216
        -147 -284 l-51 -58 -49 157 c-26 87 -48 163 -47 169 0 11 287 234 302 235 4 1
        7 -34 7 -76z m-583 -539 c62 -47 115 -89 118 -94 9 -15 -132 -40 -230 -40
        -100 0 -238 25 -233 42 3 9 218 178 227 178 3 0 56 -39 118 -86z"
                />
            </g>
        </svg>